<svg xmlns="http://www.w3.org/2000/svg" width="24.2" height="24.2" viewBox="0 0 24.2 24.2">
  <g id="Group_86" data-name="Group 86" transform="translate(-89.356 -486.371)">
    <g id="Group_83" data-name="Group 83" transform="translate(89.356 486.371)">
      <path id="Path_1206" data-name="Path 1206" d="M106.668,510.571H96.244a6.9,6.9,0,0,1-6.888-6.888V493.259a6.9,6.9,0,0,1,6.888-6.888h10.424a6.9,6.9,0,0,1,6.888,6.888v10.424A6.9,6.9,0,0,1,106.668,510.571ZM96.244,488.445a4.819,4.819,0,0,0-4.813,4.813v10.424a4.819,4.819,0,0,0,4.813,4.813h10.424a4.819,4.819,0,0,0,4.813-4.813V493.259a4.819,4.819,0,0,0-4.813-4.813Z" transform="translate(-89.356 -486.371)" fill="#fff"/>
    </g>
    <g id="Group_84" data-name="Group 84" transform="translate(95.26 492.275)">
      <path id="Path_1207" data-name="Path 1207" d="M134.06,537.271a6.2,6.2,0,1,1,6.2-6.2A6.2,6.2,0,0,1,134.06,537.271Zm0-10.318a4.122,4.122,0,1,0,4.122,4.122A4.127,4.127,0,0,0,134.06,526.953Z" transform="translate(-127.864 -524.879)" fill="#fff"/>
    </g>
    <g id="Group_85" data-name="Group 85" transform="translate(106.429 490.431)">
      <path id="Path_1208" data-name="Path 1208" d="M203.7,514.342a1.489,1.489,0,1,1-1.489-1.489A1.489,1.489,0,0,1,203.7,514.342Z" transform="translate(-200.717 -512.853)" fill="#fff"/>
    </g>
  </g>
</svg>
