<svg xmlns="http://www.w3.org/2000/svg" width="27.428" height="19.2" viewBox="0 0 27.428 19.2">
  <g id="Group_82" data-name="Group 82" transform="translate(-84.55 -85.039)">
    <g id="Group_79" data-name="Group 79" transform="translate(84.55 85.039)">
      <path id="Path_1204" data-name="Path 1204" d="M111.405,88.037a3.435,3.435,0,0,0-2.425-2.425c-2.139-.573-10.716-.573-10.716-.573s-8.577,0-10.716.573a3.435,3.435,0,0,0-2.425,2.425,38.319,38.319,0,0,0,0,13.2,3.435,3.435,0,0,0,2.425,2.425c2.139.573,10.716.573,10.716.573s8.577,0,10.716-.573a3.435,3.435,0,0,0,2.425-2.425,38.319,38.319,0,0,0,0-13.2Z" transform="translate(-84.55 -85.039)" fill="#fff"/>
      <path id="Path_1205" data-name="Path 1205" d="M133.144,117.565l7.126-4.114-7.126-4.114Z" transform="translate(-122.172 -103.851)" fill="#2e2e2e"/>
    </g>
  </g>
</svg>
